<svg height="512" viewBox="0 0 64 64" width="512" xmlns="http://www.w3.org/2000/svg"><g id="Calendar"><path d="m61 13a4 4 0 0 0 -4-4h-5v3a3 3 0 0 1 -6 0v-3h-11v3a3 3 0 0 1 -6 0v-3h-11v3a3 3 0 0 1 -6 0v-3h-5a4 4 0 0 0 -4 4v8h58z" fill="#9bc9ff"/><g fill="#1e81ce"><path d="m57 8h-4v-2a4 4 0 0 0 -8 0v2h-9v-2a4 4 0 0 0 -8 0v2h-9v-2a4 4 0 0 0 -8 0v2h-4a5.006 5.006 0 0 0 -5 5v44a5.006 5.006 0 0 0 5 5h50a5.006 5.006 0 0 0 5-5v-44a5.006 5.006 0 0 0 -5-5zm-10-2a2 2 0 0 1 4 0v6a2 2 0 0 1 -4 0zm-17 0a2 2 0 0 1 4 0v6a2 2 0 0 1 -4 0zm-17 0a2 2 0 0 1 4 0v6a2 2 0 0 1 -4 0zm47 51a3 3 0 0 1 -3 3h-50a3 3 0 0 1 -3-3v-35h56zm-56-37v-7a3 3 0 0 1 3-3h4v2a4 4 0 0 0 8 0v-2h9v2a4 4 0 0 0 8 0v-2h9v2a4 4 0 0 0 8 0v-2h4a3 3 0 0 1 3 3v7z"/><path d="m25 52a5.006 5.006 0 0 1 -5-5 1 1 0 0 0 -2 0 7 7 0 1 0 10.6-6 7 7 0 1 0 -10.6-6 1 1 0 0 0 2 0 5 5 0 1 1 5 5 1 1 0 0 0 0 2 5 5 0 0 1 0 10z"/><path d="m38.769 35.64 3.231-3.878v21.238a1 1 0 0 0 2 0v-24a1 1 0 0 0 -1.769-.64l-5 6a1 1 0 0 0 1.538 1.28z"/></g></g></svg>