<svg xmlns="http://www.w3.org/2000/svg" viewBox="0 0 496 496"><g fill="#ffcb57"><path d="M331.716 147.712A40.001 40.001 0 00303.436 136H192.572a40.034 40.034 0 00-28.288 11.712L152.004 160v16c0 17.672 14.328 32 32 32h16a32 32 0 0025.6-12.8l14.4-19.2h16l14.4 19.2a32 32 0 0025.6 12.8h16c17.672 0 32-14.328 32-32v-16l-12.288-12.288zM248.004 392c48.576 0 89.816-30.984 105.328-74.224l-37.928-12.64C305.196 332.488 278.916 352 248.004 352s-57.192-19.512-67.4-46.864l-37.928 12.64C158.188 361.016 199.428 392 248.004 392z"/></g><g fill="#e56565"><path d="M208.004 112h-8c-22.768 0-44.176-8.864-60.288-24.968l-9.368-9.376 11.312-11.312 9.368 9.376c10.76 10.752 24.424 17.528 39.224 19.6-4.992-8.832-14.248-27.832-14.248-47.32h16c0 21.328 14.512 43.344 14.656 43.56l1.344 2.016V112zM296.004 112h-8V93.584l1.336-2.016c.152-.216 14.664-22.36 14.664-43.568h16c0 19.488-9.256 38.488-14.256 47.32 14.8-2.072 28.472-8.848 39.224-19.6l9.368-9.376 11.312 11.312-9.368 9.376C340.18 103.136 318.772 112 296.004 112z"/></g><g fill="#3f3a34"><path d="M447.812 390.192c-5.368-32.232-27.968-58.68-58.976-69.016l-68.832-22.944V288h-16v14.696l-.408 1.232C295.604 327.896 273.268 344 248.004 344s-47.6-16.104-55.592-40.072l-.408-1.232V288h-16v10.232l-68.832 22.944c-31 10.336-53.6 36.784-58.976 69.016L30.556 496h434.888l-17.632-105.808zM316.86 314.048l18.248 6.08c-12.256 26.488-36.256 46.464-64.952 53.256l3.688 15.56c34.048-8.056 62.464-32.032 76.528-63.736l33.408 11.136c25.368 8.464 43.856 30.104 48.256 56.472l8.016 48.112-52.056 6.504-4.024-40.24-15.92 1.592 7.12 71.2H256.004V359.52c27.016-2.896 50.384-20.248 60.856-45.472zm-204.632 22.304l33.408-11.136c14.064 31.704 42.472 55.68 76.528 63.736l3.688-15.56c-28.688-6.792-52.696-26.768-64.952-53.256l18.248-6.08c10.48 25.224 33.84 42.576 60.856 45.472V480h-119.16l7.12-71.2-15.92-1.592-4.024 40.24-52.056-6.504 8.016-48.112c4.392-26.376 22.88-48.016 48.248-56.48zM53.324 456.728l53.096 6.64L104.764 480H49.452l3.872-23.272zM391.244 480l-1.664-16.632 53.096-6.64 3.88 23.272h-55.312z"/><path d="M147.54 215.552c4.08 14.04 11.616 26.912 22.24 37.536l31.2 31.192c7.552 7.552 17.6 11.72 28.28 11.72h37.496c10.68 0 20.728-4.168 28.28-11.72l31.192-31.192c10.624-10.624 18.16-23.496 22.24-37.536 19.936-2.256 35.536-19.024 35.536-39.552 0-4.664-.888-9.264-2.464-13.608 1.528-3.16 2.464-6.656 2.464-10.392v-16c0-74.992-61.008-136-136-136s-136 61.008-136 136v16c0 3.736.936 7.232 2.464 10.392-1.576 4.344-2.464 8.944-2.464 13.608 0 20.528 15.6 37.296 35.536 39.552zM128.004 176c0-.48.16-.936.184-1.416 2.464.856 5.064 1.416 7.816 1.416h8v14.856c0 2.616.152 5.208.376 7.784-9.48-3.2-16.376-12.088-16.376-22.64zm208 0c0 13.232-10.768 24-24 24h-16c-7.512 0-14.696-3.584-19.2-9.592L260.004 168h-24l-16.8 22.4c-4.512 6.016-11.688 9.6-19.2 9.6h-16c-13.232 0-24-10.768-24-24v-12.68l9.944-9.944c6.04-6.048 14.072-9.376 22.624-9.376h110.864c8.552 0 16.584 3.328 22.632 9.376l9.936 9.936V176zm-21.088 65.776l-31.192 31.192c-4.472 4.472-10.656 7.032-16.976 7.032h-37.496c-6.32 0-12.496-2.56-16.968-7.032l-31.2-31.192c-9.048-9.048-15.312-20.104-18.544-32.136 6.216 3.984 13.552 6.36 21.464 6.36h16c12.52 0 24.48-5.976 32-16l12-16h8l12 16.008c7.512 10.016 19.48 15.992 32 15.992h16c7.912 0 15.248-2.376 21.464-6.36-3.232 12.032-9.504 23.088-18.552 32.136zm36.712-43.136c.224-2.576.376-5.16.376-7.784V176h8c2.752 0 5.352-.56 7.816-1.416.024.48.184.936.184 1.416 0 10.552-6.896 19.44-16.376 22.64zM271.852 18.392c-.784 12.44-7.424 22.544-14.504 33.168-3.16 4.736-6.464 9.728-9.344 15.128-2.88-5.4-6.184-10.392-9.344-15.128-7.08-10.624-13.72-20.728-14.504-33.168 7.712-1.56 15.688-2.392 23.848-2.392s16.136.832 23.848 2.392zM128.004 136c0-52.296 33.68-96.76 80.44-113.16 1.904 15.08 9.816 26.96 16.904 37.6 7.536 11.304 14.656 21.984 14.656 35.56h16c0-13.576 7.12-24.256 14.656-35.56 7.088-10.64 15-22.512 16.904-37.6 46.76 16.4 80.44 60.864 80.44 113.16v16c0 4.416-3.592 8-8 8h-4.688l-17.936-17.936C328.316 132.992 316.26 128 303.436 128H192.572c-12.832 0-24.88 4.992-33.936 14.064L140.692 160h-4.688c-4.408 0-8-3.584-8-8v-16z"/></g></svg>