<svg height="382pt" viewBox="-46 0 382 382.75" width="382pt" xmlns="http://www.w3.org/2000/svg"><path d="M291.355 340.75c0-23.195-65.136-42-145.492-42-80.351 0-145.488 18.805-145.488 42s65.137 42 145.488 42c80.356 0 145.492-18.805 145.492-42zm0 0" fill="#00efd1"/><path d="M145.863 342.238c-5.52 0-10-4.476-10-10V135.961c0-5.524 4.48-10 10-10 5.524 0 10 4.476 10 10v196.277c0 5.524-4.476 10-10 10zm0 0" fill="#f4b844"/><path d="M193.746 19.918c19.36 19.305 25.219 48.352 14.848 73.648-10.367 25.297-34.93 41.875-62.27 42.036h-.46c-30.712.054-57.626-20.543-65.598-50.204-7.973-29.66 4.988-60.972 31.59-76.324 26.601-15.347 60.199-10.898 81.89 10.844zm0 0" fill="#00acea"/><path d="M178.32 63.563a9.99 9.99 0 01-9.148-5.958 25.613 25.613 0 00-18.2-14.73c-5.41-1.11-8.894-6.398-7.785-11.809 1.114-5.41 6.399-8.894 11.81-7.78a45.638 45.638 0 0132.468 26.226 10.003 10.003 0 01-.766 9.5 10 10 0 01-8.375 4.55zm0 0" fill="#f4b844"/></svg>