<svg xmlns="http://www.w3.org/2000/svg" viewBox="0 0 508 508"><circle cx="254" cy="254" r="254" fill="#324a5e"/><path d="M47.2 401.6C93.6 466 168.8 508 254 508s160.4-42 206.8-106.4H47.2z" fill="#2b3b4e"/><path fill="#4cdbc4" d="M114.4 228.8h78v171.6h-78z"/><path fill="#ff7058" d="M214.8 173.2h78v227.2h-78z"/><path fill="#ffd05b" d="M315.6 287.2h78v113.2h-78z"/><g fill="#fff"><path d="M243.2 97.6h21.2v52.8h-11.2v-42.8h-10v-10zM157.6 180.4c1.2-2 2-3.6 2-5.6 0-1.6-.4-3.2-1.6-4.4-1.2-1.2-2.8-1.6-4.4-1.6-3.2 0-6.4 2.4-9.6 7.2l-9.6-6c2.4-4 5.2-6.8 8-8.8s6.8-2.8 11.2-2.8 8.4 1.6 12 4.4c3.6 2.8 5.2 6.8 5.2 12 0 2.8-.8 5.2-2 8-1.2 2.4-4 5.6-7.6 9.6l-9.6 9.6h20.8v10.4h-37.2v-8.8l15.6-16c3.2-2.8 5.2-5.6 6.8-7.2zM338.8 227.2v-10h32.4v8l-10.8 12.4c4.4.8 7.6 2.4 10 5.2s3.6 6 3.6 10c0 5.6-2 10-5.6 13.2s-8.4 4.8-14.4 4.8-11.6-2-17.6-6l4.8-9.2c4.8 3.6 9.6 5.2 13.2 5.2 2.4 0 4.4-.4 6-1.6s2.4-2.8 2.4-5.2c0-2-.8-4-2.8-5.2-1.6-1.2-4.4-2-7.2-2-1.6 0-4 .4-7.2 1.6v-8.8l10-12h-16.8v-.4z"/></g></svg>