<svg height="576" viewBox="0 -29 432 432" width="576" xmlns="http://www.w3.org/2000/svg"><path d="M240 350.195h72v16h-72zm0 0M208 350.195h16v16h-16zm0 0M176 350.195h16v16h-16zm0 0M0 350.195h56v16H0zm0 0M120 350.195h40v16h-40zm0 0" fill="#f7ba61"/><path d="M424 286.195c0 44.184-35.816 80-80 80s-80-35.816-80-80c0-44.18 35.816-80 80-80s80 35.82 80 80zm0 0M168 286.195c0 44.184-35.816 80-80 80s-80-35.816-80-80c0-44.18 35.816-80 80-80s80 35.82 80 80zm0 0" fill="#dededc"/><path d="M191.129 133.691l-7.031 48.41-15.473-.113-17.121-57.246zm0 0" fill="#e2c3ae"/><g fill="#c0f5f9"><path d="M71.336 103.531H136v16H71.336zm0 0M96 54.195h56v16H96zm0 0M96 150.195h72v16H96zm0 0M64 54.195h16v16H64zm0 0M40 102.195h16v16H40zm0 0M64 150.195h16v16H64zm0 0"/></g><path d="M344 374.195c-48.602 0-88-39.398-88-88 0-48.597 39.398-88 88-88s88 39.403 88 88c-.059 48.578-39.422 87.946-88 88zm0-160c-39.766 0-72 32.239-72 72 0 39.766 32.234 72 72 72s72-32.234 72-72c-.043-39.746-32.254-71.953-72-72zm0 0M88 374.195c-48.602 0-88-39.398-88-88 0-48.597 39.398-88 88-88s88 39.403 88 88c-.059 48.578-39.422 87.946-88 88zm0-160c-39.766 0-72 32.239-72 72 0 39.766 32.234 72 72 72s72-32.234 72-72c-.043-39.746-32.254-71.953-72-72zm0 0" fill="#f55648"/><path d="M88 342.195a55.83 55.83 0 01-11.281-1.14l3.203-15.676a40.35 40.35 0 0022.91-2.024l5.969 14.84a55.486 55.486 0 01-20.801 4zm0 0M127.594 325.79l-11.313-11.313a39.998 39.998 0 0011.578-31.633 39.987 39.987 0 00-16.691-29.262l9.281-13.031a55.988 55.988 0 0123.352 40.96 55.991 55.991 0 01-16.207 44.278zm0 0M344 342.195a55.83 55.83 0 01-11.281-1.14l3.203-15.676a40.35 40.35 0 0022.91-2.024l5.969 14.84a55.486 55.486 0 01-20.801 4zm0 0M383.594 325.79l-11.313-11.313a39.998 39.998 0 0011.578-31.633 39.987 39.987 0 00-16.691-29.262l9.281-13.031a55.988 55.988 0 0123.352 40.96 55.991 55.991 0 01-16.207 44.278zm0 0" fill="#f9f9f9"/><path d="M342 282.691a7.992 7.992 0 01-7.398-4.957l-38-92.496c-.399-.965-.606-2-.602-3.043v-32a8 8 0 018-8h80a8 8 0 010 16h-72v22.403l37.398 91.039A7.997 7.997 0 01342 282.668zm0 0M200 294.195a7.995 7.995 0 01-7.664-5.695l-50.504-168c-1.273-4.23 1.129-8.695 5.36-9.969a8.006 8.006 0 019.968 5.364l50.504 168a7.997 7.997 0 01-7.664 10.3zm0 0" fill="#9ba823"/><path d="M88 310.195c-13.254 0-24-10.742-24-24 0-13.254 10.746-24 24-24s24 10.746 24 24c0 13.258-10.746 24-24 24zm0 0" fill="#9c9c9c"/><path d="M200 294.195H88a7.995 7.995 0 01-7.184-4.472 8.006 8.006 0 01.856-8.422l80.656-104.192a7.998 7.998 0 016.328-3.097l135.344.183a8 8 0 015.648 13.657l-104 104a7.99 7.99 0 01-5.648 2.343zm-95.688-16h92.376l88-88-112.137-.152zm0 0" fill="#d4e630"/><path d="M352 46.195h-72v-16s-48-24-40-24c4.992 0 28.703-3.117 45.809-5.46a79.136 79.136 0 0135.832 3.343C339.77 10.121 352 27.086 352 46.195zm0 0" fill="#6f7478"/><path d="M336 46.195v32h-16l-3.703 7.403a11.083 11.083 0 01-13.418 5.597l-14.879-5v-40zm0 0" fill="#f5d3bd"/><path d="M176 86.195h112v-32l-21.016-7.007a160.011 160.011 0 00-101.886.242l-33.899 13.168zm0 0" fill="#4799cf"/><path d="M272 118.195v-32c0-8.836-7.164-16-16-16s-16 7.164-16 16v36.664zm0 0" fill="#277baa"/><path d="M288 86.195l16 32h-32v-32zm0 0" fill="#e2c3ae"/><path d="M216 102.195l-8 40-66.91-18.246a35.382 35.382 0 01-15.707-59.145c4.742-4.738 11.273-7.234 17.965-6.863s12.91 3.57 17.101 8.801L176 86.195zm0 0" fill="#6f7478"/><path d="M251.727 158.766l-44.415 88.23 14.778 8.473a15.717 15.717 0 016.183 18.023l-1.128 3.367a7.996 7.996 0 01-11.56 4.418l-41.187-23.527a8 8 0 01-3.285-10.305l44.918-97.336-8-8 8-40 25.067 16.704c13.125 8.722 17.683 25.859 10.629 39.953zm0 0" fill="#eecdb8"/><path d="M195.273 269.652l-20.875-11.902a8 8 0 01-3.285-10.305l21.352-46.273 29.84 16-14.993 29.824zm0 0" fill="#dededc"/><path d="M288 46.195c2.504.504 32 32 32 32h16v-32zm0 0" fill="#f7ba61"/><path d="M216 310.195c-13.254 0-24-10.742-24-24 0-13.254 10.746-24 24-24s24 10.746 24 24c0 13.258-10.746 24-24 24zm0 0" fill="#9c9c9c"/><path d="M178.953 230.508l43.2 25.015a15.7 15.7 0 016.113 17.954l-1.13 3.367a8.006 8.006 0 01-4.734 4.945 8.013 8.013 0 01-6.828-.527l-41.176-23.512a8 8 0 01-3.285-10.305zm0 0" fill="#277baa"/><path d="M384 142.195h-56v16h56a8 8 0 000-16zm0 0" fill="#6f7478"/><path d="M256 150.195h112v-12.797c0-10.605-8.598-19.203-19.2-19.203H240v16c0 8.84 7.164 16 16 16zm0 0" fill="#f5d3bd"/><path d="M328 118.195h16v32h-16zm0 0M344 310.195c-13.254 0-24-10.742-24-24 0-13.254 10.746-24 24-24s24 10.746 24 24c0 13.258-10.746 24-24 24zm0 0" fill="#9c9c9c"/></svg>