<svg xmlns="http://www.w3.org/2000/svg" viewBox="0 0 512.001 512.001"><g fill="#c5c9f7"><path d="M439.793 129.812c-3.984 0-8.101-1.582-10.913-4.395l-42.29-42.29c-2.813-2.813-4.395-6.621-4.395-10.605s1.582-8.101 4.395-10.913l42.29-42.305c5.625-5.625 15.586-5.625 21.211 0l42.612 42.612c2.813 2.813 4.395 6.621 4.395 10.605s-1.582 7.793-4.395 10.605l-42.305 42.29a14.983 14.983 0 01-10.605 4.396zM199.708 375.929L136.07 312.29l176.222-176.222 63.638 63.638zM72.584 497.021a14.948 14.948 0 01-10.605-4.395l-42.612-42.598c-2.813-2.813-4.395-6.621-4.395-10.605s1.582-7.793 4.395-10.605l42.305-42.29c5.859-5.859 15.352-5.859 21.211 0l42.598 42.598c5.859 5.859 5.859 15.352 0 21.211l-42.29 42.29a14.96 14.96 0 01-10.607 4.394z"/></g><g fill="#a8aff1"><path d="M61.979 492.626c2.93 2.93 6.768 4.395 10.605 4.395s7.676-1.465 10.605-4.395l42.29-42.29c5.859-5.859 5.859-15.352 0-21.211l-21.299-21.299-63.505 63.505 21.304 21.295zM428.88 125.417c2.813 2.813 6.929 4.395 10.913 4.395s7.793-1.582 10.605-4.395l42.305-42.29c2.813-2.813 4.395-6.621 4.395-10.605s-1.582-7.793-4.395-10.605L471.397 40.61l-63.662 63.662 21.145 21.145zM167.895 344.115l176.222-176.222 31.816 31.815L199.71 375.93z"/></g><path d="M471.393 231.525L280.475 40.607l31.82-31.82c11.716-11.716 30.711-11.716 42.426 0l148.492 148.492c11.716 11.716 11.716 30.711 0 42.426l-31.82 31.82z" fill="#1689fc"/><path d="M428.967 295.165L216.835 83.033c-5.858-5.858-5.858-15.355 0-21.213l21.213-21.213c11.716-11.716 30.711-11.716 42.426 0l190.919 190.919c11.716 11.716 11.716 30.711 0 42.426l-21.213 21.213c-5.858 5.858-15.355 5.858-21.213 0z" fill="#17ace8"/><path d="M40.607 280.475l190.919 190.919-31.82 31.82c-11.716 11.716-30.711 11.716-42.426 0L8.787 354.721c-11.716-11.716-11.716-30.711 0-42.426l31.82-31.82z" fill="#1689fc"/><path d="M83.033 216.835l212.132 212.132c5.858 5.858 5.858 15.355 0 21.213l-21.213 21.213c-11.716 11.716-30.711 11.716-42.426 0L40.607 280.475c-11.716-11.716-11.716-30.711 0-42.426l21.213-21.213c5.858-5.859 15.355-5.859 21.213-.001z" fill="#17ace8"/><g fill="#136ef1"><path d="M157.28 503.214c11.715 11.715 30.71 11.715 42.426 0l31.82-31.82-95.455-95.457-53.033 53.033 74.242 74.244zM375.939 136.069l95.455 95.457 31.82-31.82c11.715-11.715 11.715-30.71 0-42.426l-74.242-74.244-53.033 53.033z"/></g><g fill="#1689fc"><path d="M231.525 471.393c11.715 11.715 30.71 11.715 42.427 0l21.213-21.215c5.858-5.858 5.858-15.355 0-21.213L189.103 322.904l-53.033 53.033 95.455 95.456zM428.968 295.165c5.858 5.858 15.355 5.858 21.213 0l21.213-21.215c11.715-11.715 11.715-30.71 0-42.426l-95.455-95.457-53.033 53.033 106.062 106.065z"/></g></svg>